<svg width="58" height="95" viewBox="0 0 58 95" fill="none" xmlns="http://www.w3.org/2000/svg">
    <path d="M26.0683 91.701C21.1833 87.9761 17.5805 82.4194 16.4203 75.9467H0.666016V7.86116C9.1538 12.0745 15.1991 21.4172 15.9318 31.0652L18.3133 50.178L17.1531 49.9948C14.5884 49.9948 12.3902 52.3763 12.3902 54.7577C12.3902 56.956 14.0999 58.849 16.2982 59.3375L19.1682 60.0092C23.9311 51.0329 26.6179 42.2398 26.6179 33.5688C26.6179 25.7527 25.5798 17.9977 25.4577 10.0594C25.4577 6.51778 26.8011 3.28142 28.9994 0.777832C31.1976 3.34249 32.541 6.51778 32.541 10.0594C32.541 17.9977 31.3808 25.8138 31.3808 33.5688C31.3808 42.1787 34.0676 51.0329 38.8305 60.0092L41.7005 59.3375C43.8988 58.849 45.6086 56.956 45.6086 54.7577C45.6086 52.3763 43.4103 49.9948 40.8456 49.9948L39.6854 50.178L42.0669 31.0652C43.2271 21.4172 48.8449 12.0745 57.3327 7.86116V75.9467H41.5784C40.4182 82.3583 36.9986 88.1593 31.9304 91.701C30.7702 92.5558 29.7321 93.5939 29.0604 94.9373C28.2666 93.5329 27.2285 92.5558 26.0683 91.701ZM8.11573 52.4373C8.78742 49.8727 10.6804 47.6744 13.0008 46.331L11.1078 30.5767C10.4361 25.6916 8.42104 21.2951 5.36788 17.6923V52.3763H8.11573V52.4373ZM16.115 71.1837C16.115 68.8023 16.4814 66.604 16.9699 64.4057L14.7716 63.9172C11.5353 62.8791 9.03168 60.3755 8.1768 57.1392H5.49001V71.1837H16.115ZM26.5568 71.1837C26.5568 68.3138 24.3586 65.7491 21.4886 65.4438C21.0001 67.2757 20.6337 69.1686 20.6337 71.1837H26.5568ZM26.5568 75.9467H21.3054C22.1603 79.6715 23.9922 83.03 26.5568 85.961V75.9467ZM34.0065 61.2304C31.9915 57.5056 30.0985 53.5975 28.9383 49.5673C27.7781 53.6586 25.8851 57.5056 23.87 61.2304C25.8851 61.7189 27.5949 63.0623 28.9383 64.5889C30.2817 63.0623 31.9915 61.7189 34.0065 61.2304ZM37.2429 71.1837C37.2429 69.1686 36.8765 67.2757 36.388 65.4438C33.518 65.8102 31.3198 68.3138 31.3198 71.1837H37.2429ZM36.5712 75.9467H31.3198V85.961C33.8844 83.03 35.7163 79.6715 36.5712 75.9467ZM52.5087 71.1837V57.1392H49.8219C48.967 60.3755 46.4634 62.8791 43.2271 63.9172L41.0288 64.4057C41.5173 66.604 41.8837 68.8023 41.8837 71.1837H52.5087ZM52.5087 52.4373V17.7534C49.4555 21.2951 47.2573 25.6916 46.7688 30.6377L44.8758 46.3921C47.2573 47.7355 49.0892 49.9337 49.7608 52.4984H52.5087V52.4373Z" fill="black"></path>
</svg>