<svg width="56" height="56" viewBox="0 0 56 56" fill="none" xmlns="http://www.w3.org/2000/svg">
<circle cx="28" cy="28" r="28" fill="white"/>
<mask id="mask0_478_4332" style="mask-type:alpha" maskUnits="userSpaceOnUse" x="16" y="16" width="24" height="24">
<rect x="16" y="16" width="24" height="24" fill="#D9D9D9"/>
</mask>
<g mask="url(#mask0_478_4332)">
<path d="M22.6833 37C22.225 37 21.8326 36.8368 21.5062 36.5104C21.1799 36.184 21.0167 35.7917 21.0167 35.3334V21.5H20V19.8333H24.8V19H31.2V19.8333H36V21.5H34.9833V35.3334C34.9833 35.7833 34.818 36.1736 34.4875 36.5042C34.1569 36.8347 33.7667 37 33.3167 37H22.6833ZM33.3167 21.5H22.6833V35.3334H33.3167V21.5ZM25.1167 33.2334H26.7833V23.5833H25.1167V33.2334ZM29.2167 33.2334H30.8833V23.5833H29.2167V33.2334Z" fill="#EE0004"/>
</g>
</svg>