<svg xmlns="http://www.w3.org/2000/svg" width="40" height="40" viewBox="0 0 40 40" fill="none">
<circle cx="20" cy="20" r="20" fill="white"/>
<mask id="mask0_303_7466" style="mask-type:alpha" maskUnits="userSpaceOnUse" x="10" y="10" width="20" height="20">
<rect x="10" y="10" width="20" height="20" fill="#D9D9D9"/>
</mask>
<g mask="url(#mask0_303_7466)">
<path d="M13 27V23H14.5V24.4375L16.9375 22L18 23.0625L15.5625 25.5H17V27H13ZM23 27V25.5H24.4375L22 23.0625L23.0625 22L25.5 24.4375V23H27V27H23ZM16.9375 18L14.5 15.5625V17H13V13H17V14.5H15.5625L18 16.9375L16.9375 18ZM23.0625 18L22 16.9375L24.4375 14.5H23V13H27V17H25.5V15.5625L23.0625 18Z" fill="#595959"/>
</g>
</svg>