<svg width="24" height="40" viewBox="0 0 24 40" fill="none" xmlns="http://www.w3.org/2000/svg">
<path d="M10.8066 38.6097C8.72044 37.0315 7.21691 34.6642 6.70948 31.9211H0V3.02489C3.58966 4.82856 6.18324 8.77407 6.46515 12.8699L7.48003 20.9864L6.99139 20.93C5.92013 20.93 4.98042 21.9446 4.98042 22.9403C4.98042 23.8798 5.6946 24.6689 6.6343 24.8755L7.85591 25.1574C9.86688 21.3434 11.0133 17.6045 11.0133 13.9408C11.0133 10.6341 10.581 7.32738 10.5059 3.94551C10.5059 2.44246 11.0885 1.07093 12.0094 0C12.9491 1.07093 13.5129 2.44246 13.5129 3.94551C13.5129 7.32738 13.0055 10.6341 13.0055 13.9408C13.0055 17.6045 14.1519 21.3434 16.1629 25.1574L17.3845 24.8755C18.3242 24.6689 19.0384 23.861 19.0384 22.9403C19.0384 21.9258 18.0987 20.93 17.0274 20.93L16.52 21.0052L17.5348 12.8887C18.0423 8.79286 20.4103 4.82856 24 3.04368V31.9399H17.3093C16.8019 34.6642 15.3735 37.1254 13.2122 38.6285C12.7048 38.9854 12.2725 39.4176 11.9906 40C11.7275 39.4176 11.2952 38.9854 10.8066 38.6097ZM3.17619 21.9446C3.4581 20.8736 4.24746 19.9342 5.26233 19.3518L4.47298 12.6632C4.19107 10.5777 3.32655 8.71771 2.02976 7.19587V21.9258H3.17619V21.9446ZM6.55912 29.9108C6.55912 28.8962 6.70947 27.9756 6.91621 27.0362L5.97651 26.8107C4.60454 26.3786 3.53328 25.3077 3.17619 23.9361H2.02976V29.9108H6.55912ZM11.0133 29.9108C11.0133 28.6895 10.0736 27.6186 8.852 27.4683C8.64526 28.2574 8.49491 29.0465 8.49491 29.9108H11.0133ZM11.0133 31.9399H8.77682C9.13391 33.5181 9.92326 34.9648 11.0133 36.186V31.9399ZM14.1707 25.6834C13.3062 24.1052 12.5168 22.4519 12.0094 20.7233C11.502 22.4519 10.7126 24.1052 9.84808 25.6834C10.7126 25.8901 11.4268 26.4725 12.0094 27.1301C12.592 26.4725 13.3062 25.8901 14.1707 25.6834ZM15.5427 29.9108C15.5427 29.0465 15.3923 28.2574 15.1856 27.4683C13.964 27.6186 13.0243 28.6895 13.0243 29.9108H15.5427ZM15.2608 31.9399H13.0243V36.186C14.1143 34.946 14.9037 33.5181 15.2608 31.9399ZM22.0078 29.9108V23.9361H20.8614C20.5043 25.3077 19.4143 26.3786 18.0611 26.8107L17.1214 27.0362C17.3281 27.9756 17.4785 28.8962 17.4785 29.9108H22.0078ZM22.0078 21.9446V7.19587C20.711 8.69892 19.7713 10.5777 19.5646 12.6632L18.7753 19.3518C19.7901 19.9342 20.5795 20.8549 20.8614 21.9446H22.0078Z" fill="black"/>
</svg>
