<svg width="25" height="22" viewBox="0 0 25 22" fill="none" xmlns="http://www.w3.org/2000/svg">
<g clip-path="url(#clip0_22_2183)">
<path d="M22.9437 0L12.6455 7.45057L14.5605 3.05974L22.9437 0Z" fill="#E17726"/>
<path d="M0.0803594 0.00878906L8.44108 3.06028L10.2595 7.50868L0.0803594 0.00878906ZM18.7993 15.8453L23.351 15.93L21.7602 21.2139L16.2062 19.7187L18.7993 15.8453ZM4.20048 15.8453L6.78395 19.7187L1.2393 21.2139L-0.341797 15.93L4.20048 15.8453Z" fill="#E27625"/>
<path d="M10.0119 6.3756L10.1979 12.2499L4.63184 12.0023L6.21509 9.6668L6.23515 9.64434L10.0119 6.3756ZM12.9296 6.31006L16.764 9.64453L16.7839 9.66689L18.3671 12.0024L12.8023 12.2499L12.9296 6.31006ZM6.94662 15.8624L9.9858 18.1778L6.45537 19.8444L6.94662 15.8624ZM16.0531 15.862L16.5341 19.8445L13.0136 18.1776L16.0531 15.862Z" fill="#E27625"/>
<path d="M13.0918 17.9595L16.6644 19.6509L13.3412 21.1951L13.3757 20.1745L13.0918 17.9595ZM9.90742 17.9602L9.6347 20.1578L9.65711 21.1939L6.32617 19.6509L9.90742 17.9602Z" fill="#D5BFB2"/>
<path d="M8.8757 13.0166L9.80927 14.935L6.63086 14.0246L8.8757 13.0166ZM14.1243 13.0168L16.3797 14.0246L13.1909 14.9347L14.1243 13.0168Z" fill="#233447"/>
<path d="M7.19032 15.8427L6.67657 19.9714L3.92285 15.933L7.19032 15.8427ZM15.8106 15.8428L19.0782 15.933L16.3142 19.9716L15.8106 15.8428ZM18.4484 11.7688L16.0704 14.1385L14.2369 13.3192L13.3592 15.1236L12.7837 12.0208L18.4484 11.7688ZM4.55116 11.7688L10.2169 12.0208L9.64141 15.1236L8.76345 13.3195L6.93973 14.1386L4.55116 11.7688Z" fill="#CC6228"/>
<path d="M4.39062 11.2825L7.08106 13.9519L7.17425 16.5872L4.39062 11.2825ZM18.6122 11.2777L15.8235 16.5919L15.9285 13.9519L18.6122 11.2777ZM10.0851 11.4451L10.1934 12.1115L10.4609 13.7717L10.2889 18.8706L9.47563 14.7745L9.47534 14.7322L10.0851 11.4451ZM12.9136 11.4358L13.525 14.7322L13.5247 14.7745L12.7093 18.8809L12.6771 17.8538L12.5499 13.7414L12.9136 11.4358Z" fill="#E27525"/>
<path d="M16.1672 13.8458L16.0762 16.1355L13.238 18.2976L12.6642 17.9013L13.3074 14.6622L16.1672 13.8458ZM6.8418 13.8458L9.6917 14.6622L10.3348 17.9013L9.76108 18.2976L6.9228 16.1353L6.8418 13.8458Z" fill="#F5841F"/>
<path d="M5.7832 19.1453L9.41433 20.8275L9.39895 20.1091L9.7028 19.8483H13.2966L13.6114 20.1082L13.5882 20.8261L17.1963 19.1495L15.4406 20.5681L13.3176 21.9938H9.67364L7.55208 20.5622L5.7832 19.1453Z" fill="#C0AC9D"/>
<path d="M12.8312 17.7356L13.3446 18.0903L13.6454 20.4373L13.21 20.0779H9.79041L9.36328 20.4445L9.65428 18.0904L10.1678 17.7356H12.8312Z" fill="#161616"/>
<path d="M22.2638 0.206299L23.5 3.83236L22.728 7.49875L23.2777 7.91336L22.5338 8.46831L23.0929 8.89052L22.3526 9.5497L22.8071 9.87154L21.6009 11.2489L16.6537 9.84047L16.6109 9.81801L13.0458 6.87752L22.2638 0.206299ZM0.736187 0.206299L9.95425 6.87752L6.38912 9.81801L6.34628 9.84047L1.39909 11.2489L0.192906 9.87154L0.647031 9.54997L-0.0928438 8.89052L0.465156 8.46877L-0.289906 7.91226L0.280563 7.49737L-0.5 3.83254L0.736187 0.206299Z" fill="#763E1A"/>
<path d="M16.4122 9.53243L21.654 11.0247L23.357 16.1567H18.8641L15.7685 16.1949L18.0198 11.9041L16.4122 9.53243ZM6.58866 9.53243L4.98076 11.9041L7.23235 16.1949L4.13813 16.1567H-0.34668L1.34673 11.0248L6.58866 9.53243ZM14.8177 3.03528L13.3515 6.90719L13.0404 12.1377L12.9213 13.7771L12.9118 17.9652H10.0889L10.0797 13.785L9.96029 12.1363L9.64904 6.90719L8.18307 3.03528H14.8177Z" fill="#F5841F"/>
</g>
<defs>
<clipPath id="clip0_22_2183">
<rect width="24" height="22" fill="white" transform="translate(0.5)"/>
</clipPath>
</defs>
</svg>
