<svg width="24" height="24" viewBox="0 0 24 24" fill="none" xmlns="http://www.w3.org/2000/svg">
<g id="icons">
<mask id="mask0_332_723" style="mask-type:alpha" maskUnits="userSpaceOnUse" x="0" y="0" width="24" height="24">
<rect id="Bounding box" width="24" height="24" fill="#D9D9D9"/>
</mask>
<g mask="url(#mask0_332_723)">
<path id="moving_ministry" d="M1 21V3H15V21H9V17H7V21H1ZM3 19H5V15H11V19H13V5H3V19ZM5 13H7V11H5V13ZM5 9H7V7H5V9ZM9 13H11V11H9V13ZM9 9H11V7H9V9ZM19.5 15.5L18.1 14.1L19.175 13H16V11H19.175L18.1 9.9L19.5 8.5L23 12L19.5 15.5Z" fill="#595959"/>
</g>
</g>
</svg>
