<svg width="25" height="24" viewBox="0 0 25 24" fill="none" xmlns="http://www.w3.org/2000/svg">
<g clip-path="url(#clip0_22_2142)">
<path d="M4.41302 7.519C8.32802 3.688 14.673 3.688 18.587 7.519L19.058 7.98C19.1045 8.02504 19.1415 8.07896 19.1668 8.13857C19.192 8.19818 19.205 8.26226 19.205 8.327C19.205 8.39174 19.192 8.45582 19.1668 8.51543C19.1415 8.57504 19.1045 8.62897 19.058 8.674L17.447 10.251C17.3999 10.2975 17.3363 10.3236 17.27 10.3236C17.2038 10.3236 17.1402 10.2975 17.093 10.251L16.444 9.617C13.714 6.944 9.28702 6.944 6.55702 9.617L5.86302 10.297C5.81545 10.3431 5.75179 10.3689 5.68552 10.3689C5.61926 10.3689 5.5556 10.3431 5.50802 10.297L3.89702 8.719C3.85054 8.67405 3.81358 8.62021 3.78833 8.56069C3.76309 8.50116 3.75008 8.43716 3.75008 8.3725C3.75008 8.30784 3.76309 8.24384 3.78833 8.18432C3.81358 8.12479 3.85054 8.07095 3.89702 8.026L4.41302 7.519ZM21.919 10.782L23.353 12.186C23.3995 12.231 23.4365 12.285 23.4618 12.3446C23.487 12.4042 23.5 12.4683 23.5 12.533C23.5 12.5977 23.487 12.6618 23.4618 12.7214C23.4365 12.781 23.3995 12.835 23.353 12.88L16.887 19.211C16.7922 19.3034 16.665 19.3551 16.5325 19.3551C16.4001 19.3551 16.2729 19.3034 16.178 19.211L11.59 14.718C11.5664 14.6944 11.5344 14.6812 11.501 14.6812C11.4677 14.6812 11.4356 14.6944 11.412 14.718L6.82302 19.211C6.72816 19.3034 6.60096 19.3551 6.46852 19.3551C6.33609 19.3551 6.20888 19.3034 6.11402 19.211L-0.352976 12.88C-0.399488 12.835 -0.436471 12.781 -0.461728 12.7214C-0.486985 12.6618 -0.5 12.5977 -0.5 12.533C-0.5 12.4683 -0.486985 12.4042 -0.461728 12.3446C-0.436471 12.285 -0.399488 12.231 -0.352976 12.186L1.08102 10.782C1.17588 10.6896 1.30309 10.6379 1.43552 10.6379C1.56796 10.6379 1.69516 10.6896 1.79002 10.782L6.37902 15.275C6.42902 15.323 6.50802 15.323 6.55702 15.275L11.146 10.782C11.2409 10.6896 11.3681 10.6379 11.5005 10.6379C11.633 10.6379 11.7602 10.6896 11.855 10.782L16.444 15.275C16.494 15.323 16.572 15.323 16.622 15.275L21.211 10.782C21.3057 10.6896 21.4328 10.638 21.565 10.638C21.6973 10.638 21.8243 10.6896 21.919 10.782Z" fill="#579CFF"/>
</g>
<defs>
<clipPath id="clip0_22_2142">
<rect width="24" height="24" fill="white" transform="translate(0.5)"/>
</clipPath>
</defs>
</svg>
