<svg width="13" height="16" viewBox="0 0 13 16" fill="none" xmlns="http://www.w3.org/2000/svg">
<path d="M3.66669 2.33333V10.3333C3.66669 10.687 3.80716 11.0261 4.05721 11.2761C4.30726 11.5262 4.6464 11.6667 5.00002 11.6667H10.3334C10.687 11.6667 11.0261 11.5262 11.2762 11.2761C11.5262 11.0261 11.6667 10.687 11.6667 10.3333V4.49467C11.6667 4.31704 11.6312 4.14121 11.5622 3.9775C11.4933 3.81379 11.3924 3.66549 11.2654 3.54133L9.05535 1.38C8.80626 1.13644 8.47173 1.00004 8.12335 1H5.00002C4.6464 1 4.30726 1.14048 4.05721 1.39052C3.80716 1.64057 3.66669 1.97971 3.66669 2.33333V2.33333Z" stroke="white" stroke-opacity="0.7" stroke-width="1.5" stroke-linecap="round" stroke-linejoin="round"/>
<path d="M9 11.6666V12.9999C9 13.3535 8.85952 13.6927 8.60948 13.9427C8.35943 14.1928 8.02029 14.3333 7.66667 14.3333H2.33333C1.97971 14.3333 1.64057 14.1928 1.39052 13.9427C1.14048 13.6927 1 13.3535 1 12.9999V5.66659C1 5.31296 1.14048 4.97382 1.39052 4.72378C1.64057 4.47373 1.97971 4.33325 2.33333 4.33325H3.66667" stroke="white" stroke-opacity="0.7" stroke-width="1.5" stroke-linecap="round" stroke-linejoin="round"/>
</svg>
